REM MD5 6d4fb19a732e2234583b9abc65b75da0
FILE "Euro Demo Four (Germany).bin" BINARY
  TRACK 01 MODE2/2352
    INDEX 01 00:00:00
  TRACK 02 AUDIO
    INDEX 00 29:01:11
    INDEX 01 29:03:11
  TRACK 03 AUDIO
    INDEX 00 32:51:36
    INDEX 01 32:53:36
  TRACK 04 AUDIO
    INDEX 00 34:48:23
    INDEX 01 34:50:23
REM LEADOUT 38:00:32
